<?xml version="1.0" encoding="utf-8"?>
<!-- Generator: Adobe Illustrator 23.1.0, SVG Export Plug-In . SVG Version: 6.00 Build 0)  -->
<svg version="1.1" id="Слой_1" xmlns="http://www.w3.org/2000/svg" xmlns:xlink="http://www.w3.org/1999/xlink" x="0px" y="0px"
	 viewBox="0 0 60 60" style="enable-background:new 0 0 60 60;" xml:space="preserve">
<style type="text/css">
	.st0{fill-rule:evenodd;clip-rule:evenodd;fill:url(#SVGID_1_);stroke:#f00;stroke-width:0.5669;stroke-miterlimit:10;}
	.st1{fill-rule:evenodd;clip-rule:evenodd;fill:url(#SVGID_2_);stroke:#f00;stroke-width:0.5669;stroke-miterlimit:10;}
	.st2{fill-rule:evenodd;clip-rule:evenodd;fill:url(#SVGID_3_);stroke:#f00;stroke-width:0.5669;stroke-miterlimit:10;}
</style>
<g id="Слой_x0020_1">
	
		<linearGradient id="SVGID_1_" gradientUnits="userSpaceOnUse" x1="10036.5996" y1="-12222.0596" x2="28002.4102" y2="-37464.9492" gradientTransform="matrix(2.834646e-02 0 0 -2.834646e-02 -267.2047 -352.8961)">
		<stop  offset="0" style="stop-color:#f00"/>
		<stop  offset="1" style="stop-color:#f00"/>
	</linearGradient>
	<path class="st0" d="M64.4-4.1c-9.1-0.5-18.1-1.1-27.2-1.4c-13-0.4-25.7,0.9-38.6,1.2V31h65.1C64.7,19.3,64.5,7.6,64.4-4.1z"/>
	
		<linearGradient id="SVGID_2_" gradientUnits="userSpaceOnUse" x1="11646.7324" y1="-13883.8232" x2="47065.9648" y2="-37540.582" gradientTransform="matrix(2.834646e-02 0 0 -2.834646e-02 -267.2047 -352.8961)">
		<stop  offset="0" style="stop-color:#f00"/>
		<stop  offset="1" style="stop-color:#f00"/>
	</linearGradient>
	<path class="st1" d="M63.4,33.7c1.4-12.6,1.1-25.1,0.9-37.7c-9.1-0.5-18.1-1.1-27.2-1.4c-3.1-0.1-6.2-0.1-9.4,0v68.4h33.8
		C61.6,53.1,62.4,43.4,63.4,33.7z"/>
	
		<linearGradient id="SVGID_3_" gradientUnits="userSpaceOnUse" x1="13590.2236" y1="-10974.001" x2="49009.457" y2="-34630.7617" gradientTransform="matrix(2.834646e-02 0 0 -2.834646e-02 -267.2047 -352.8961)">
		<stop  offset="0" style="stop-color:#f00"/>
		<stop  offset="1" style="stop-color:#f00"/>
	</linearGradient>
	<path class="st2" d="M272.6,62.5c0,0.1-0.1,0.3-0.1,0.4h4.2v-0.2C275.4,62.6,274,62.5,272.6,62.5z"/>
</g>
</svg>
